Coordinates
version=1
nRows=15
nColumns=63
inDegrees=yes

Units are S.I. units (second, meters, Newtons, ...)
If the header above contains a line with 'inDegrees', this indicates whether rotational values are in degrees (yes) or radians (no).

endheader
time	pelvis_tilt	pelvis_list	pelvis_rotation	pelvis_tx	pelvis_ty	pelvis_tz	hip_flexion_r	hip_adduction_r	hip_rotation_r	knee_angle_r	knee_angle_r_beta	ankle_angle_r	subtalar_angle_r	mtp_angle_r	hip_flexion_l	hip_adduction_l	hip_rotation_l	knee_angle_l	knee_angle_l_beta	ankle_angle_l	subtalar_angle_l	mtp_angle_l	L5_S1_Flex_Ext	L5_S1_Lat_Bending	L5_S1_axial_rotation	L4_L5_Flex_Ext	L4_L5_Lat_Bending	L4_L5_axial_rotation	L3_L4_Flex_Ext	L3_L4_Lat_Bending	L3_L4_axial_rotation	L2_L3_Flex_Ext	L2_L3_Lat_Bending	L2_L3_axial_rotation	L1_L2_Flex_Ext	L1_L2_Lat_Bending	L1_L2_axial_rotation	L1_T12_Flex_Ext	L1_T12_Lat_Bending	L1_T12_axial_rotation	Abs_r3	Abs_r2	Abs_r1	Abs_t1	Abs_t2	neck_flexion	neck_bending	neck_rotation	arm_flex_r	arm_add_r	arm_rot_r	elbow_flex_r	pro_sup_r	wrist_flex_r	wrist_dev_r	arm_flex_l	arm_add_l	arm_rot_l	elbow_flex_l	pro_sup_l	wrist_flex_l	wrist_dev_l
0.000000	-7.775321	-2.431080	87.594346	0.254201	0.742206	0.731326	3.973614	-3.767205	10.463153	2.334963	0.040753	24.393301	-12.063709	0.000000	4.239307	4.247154	2.482237	2.467750	0.043070	24.848640	-4.151376	0.000000	0.365403	-0.391808	0.307842	0.678590	-0.521105	0.327082	0.600321	-0.952643	0.327082	0.417619	-0.952643	0.269362	0.339313	-0.798976	0.250122	0.208791	-0.606911	0.230882	2.610038	-4.432216	1.712126	0.000000	0.000000	27.673116	1.602209	0.210157	19.950769	-5.920480	66.205331	39.747109	27.351029	4.914724	21.669232	18.207537	-6.344491	54.844068	44.763222	55.291013	3.533634	13.191583
0.018868	-7.653095	-2.714507	87.861563	0.254279	0.741468	0.734311	4.237071	-3.621730	10.824027	1.942591	0.033905	23.600694	-13.181779	0.000000	5.160908	4.046629	1.174405	3.491813	0.060944	24.707738	-2.470392	0.000000	0.365697	-0.386225	0.353445	0.679136	-0.513680	0.375535	0.600804	-0.939068	0.375535	0.417955	-0.939068	0.309264	0.339586	-0.787591	0.287174	0.208959	-0.598263	0.265084	2.612138	-4.369058	1.965756	0.000000	0.000000	27.809955	1.642827	-0.547177	18.263274	-5.622372	63.718480	39.152350	34.707459	5.578255	18.761081	17.565714	-7.383853	57.384859	44.986622	55.223035	4.267640	11.699788
0.037736	-7.520328	-2.935512	88.114206	0.254237	0.740927	0.736674	4.441268	-3.470996	11.007793	1.633797	0.028515	22.947359	-14.063592	0.000000	5.902569	3.858482	0.180846	4.337716	0.075707	24.610429	-1.153189	0.000000	0.366082	-0.376001	0.382938	0.679851	-0.500081	0.406872	0.601437	-0.914209	0.406872	0.418395	-0.914209	0.335071	0.339944	-0.766741	0.311137	0.209179	-0.582426	0.287204	2.614889	-4.253398	2.129787	0.000000	0.000000	27.912289	1.685855	-1.049823	16.895543	-5.396723	61.556018	38.712312	41.110495	6.162809	16.404659	17.095175	-8.160314	59.402393	45.125445	54.938482	4.825556	10.610410
0.056604	-7.379071	-3.098947	88.351234	0.254090	0.740563	0.738466	4.590477	-3.316572	11.036074	1.401091	0.024454	22.421709	-14.731111	0.000000	6.477781	3.682641	-0.523408	5.018427	0.087588	24.549499	-0.174379	0.000000	0.366495	-0.361708	0.398245	0.680618	-0.481072	0.423135	0.602115	-0.879457	0.423135	0.418867	-0.879457	0.348464	0.340327	-0.737595	0.323574	0.209415	-0.560286	0.298684	2.617837	-4.091713	2.214919	0.000000	0.000000	27.982895	1.730873	-1.322107	15.817265	-5.236448	59.692457	38.411967	46.627319	6.673055	14.554565	16.778297	-8.698928	60.945786	45.188024	54.462184	5.223242	9.881928
0.075472	-7.231376	-3.209668	88.571607	0.253854	0.740361	0.739741	4.688970	-3.160027	10.930491	1.236985	0.021589	22.012156	-15.206301	0.000000	6.900037	3.519034	-0.963322	5.546915	0.096812	24.517731	0.491423	0.000000	0.366872	-0.343919	0.401289	0.681318	-0.457412	0.426369	0.602734	-0.836204	0.426369	0.419298	-0.836204	0.351128	0.340677	-0.701319	0.326047	0.209631	-0.532730	0.300967	2.620529	-3.890478	2.231848	0.000000	0.000000	28.024551	1.777458	-1.388352	14.998125	-5.134460	58.102303	38.236287	51.325116	7.113660	13.165401	16.597455	-9.024746	62.064156	45.182692	53.818967	5.476558	9.472821
0.094340	-7.079293	-3.272527	88.774282	0.253545	0.740302	0.740549	4.741019	-3.002929	10.712667	1.133987	0.019792	21.707110	-15.511125	0.000000	7.182827	3.367588	-1.163861	5.936149	0.103605	24.507910	0.869606	0.000000	0.367149	-0.323206	0.393993	0.681833	-0.429864	0.418618	0.603189	-0.785843	0.418618	0.419615	-0.785843	0.344744	0.340935	-0.659082	0.320119	0.209789	-0.500646	0.295495	2.622509	-3.656170	2.191271	0.000000	0.000000	28.040036	1.825192	-1.272882	14.407812	-5.083674	56.760069	38.170243	55.271069	7.489290	12.191766	16.535028	-9.162821	62.806620	45.117782	53.033659	5.601361	9.341568
0.113208	-6.924875	-3.292379	88.958220	0.253177	0.740370	0.740943	4.750895	-2.846847	10.404225	1.084610	0.018930	21.494983	-15.667549	0.000000	7.339646	3.228230	-1.149992	6.199097	0.108195	24.512820	0.985556	0.000000	0.367263	-0.300142	0.378281	0.682045	-0.399189	0.401924	0.603377	-0.729765	0.401924	0.419745	-0.729765	0.330996	0.341041	-0.612050	0.307353	0.209854	-0.464920	0.283711	2.623325	-3.395266	2.103886	0.000000	0.000000	28.032126	1.873651	-1.000021	14.016014	-5.077004	55.640262	38.198807	58.532363	7.804613	11.588261	16.573391	-9.138204	63.222294	45.001626	52.131086	5.613513	9.446646
0.132075	-6.770174	-3.274078	89.122379	0.252766	0.740546	0.740976	4.722871	-2.693348	10.026788	1.081362	0.018873	21.364188	-15.697536	0.000000	7.383983	3.100889	-0.946680	6.348728	0.110806	24.525244	0.864659	0.000000	0.367151	-0.275299	0.356076	0.681836	-0.366148	0.378331	0.603192	-0.669363	0.378331	0.419617	-0.669363	0.311567	0.340936	-0.561391	0.289312	0.209790	-0.426439	0.267057	2.622523	-3.114243	1.980390	0.000000	0.000000	28.003601	1.922417	-0.594094	13.792417	-5.107365	54.717392	38.306952	61.176181	8.064296	11.309485	16.694921	-8.975947	63.360296	44.842556	51.136078	5.528871	9.746536
0.150943	-6.617240	-3.222477	89.265719	0.252328	0.740813	0.740699	4.661217	-2.544002	9.601978	1.116756	0.019491	21.303135	-15.623051	0.000000	7.329332	2.985491	-0.578892	6.398011	0.111666	24.537967	0.532303	0.000000	0.366749	-0.249251	0.329302	0.681089	-0.331504	0.349884	0.602531	-0.606029	0.349884	0.419157	-0.606029	0.288140	0.340563	-0.508272	0.267558	0.209560	-0.386090	0.246977	2.619649	-2.819576	1.831481	0.000000	0.000000	27.957237	1.971068	-0.079425	13.706709	-5.167671	53.965969	38.479649	63.269708	8.273006	11.310039	16.881994	-8.701103	63.269742	44.648906	50.073460	5.363296	10.199715
0.169811	-6.468125	-3.142431	89.387198	0.251879	0.741153	0.740164	4.570206	-2.400378	9.151417	1.183300	0.020652	21.300235	-15.466057	0.000000	7.189184	2.881965	-0.071593	6.359915	0.111001	24.543773	0.013874	0.000000	0.365993	-0.222569	0.299882	0.679685	-0.296016	0.318625	0.601289	-0.541154	0.318625	0.418293	-0.541154	0.262397	0.339861	-0.453862	0.243654	0.209128	-0.344759	0.224912	2.614249	-2.517742	1.667856	0.000000	0.000000	27.895813	2.019182	0.519663	13.728578	-5.250837	53.360502	38.701869	64.880126	8.435410	11.544524	17.116989	-8.338723	62.999749	44.429007	48.968060	5.132645	10.764663
0.188679	-6.324882	-3.038794	89.485776	0.251432	0.741550	0.739424	4.454109	-2.264043	8.696729	1.273507	0.022227	21.343902	-15.248519	0.000000	6.977031	2.790237	0.550250	6.247408	0.109038	24.535446	-0.665240	0.000000	0.364820	-0.195825	0.269740	0.677506	-0.260448	0.286599	0.599362	-0.476130	0.286599	0.416952	-0.476130	0.236022	0.338771	-0.399327	0.219164	0.208458	-0.303334	0.202305	2.605869	-2.215217	1.500212	0.000000	0.000000	27.822107	2.066341	1.178844	13.827712	-5.349776	52.875501	38.958586	66.074621	8.556176	11.967538	17.382281	-7.913860	62.599434	44.191193	47.844706	4.852779	11.399857
0.207547	-6.201127	-2.915407	89.560028	0.251030	0.741991	0.738488	4.311609	-2.147591	8.239212	1.377535	0.024043	21.428859	-14.963413	0.000000	6.701348	2.716036	1.197490	6.057176	0.105718	24.524634	-1.399035	0.000000	0.363036	-0.172702	0.240563	0.674194	-0.229694	0.255598	0.596432	-0.419908	0.255598	0.414914	-0.419908	0.210492	0.337115	-0.352174	0.195457	0.207439	-0.267516	0.180422	2.593129	-1.953642	1.337938	0.000000	0.000000	27.744200	2.164044	1.768603	13.919647	-5.400025	52.422642	39.175062	66.610834	8.573632	12.616509	17.599294	-7.565715	62.198648	43.990861	46.782599	4.609835	11.779842
0.226415	-6.091178	-2.771679	89.598067	0.250691	0.742448	0.737475	4.139924	-2.045607	7.916681	1.478275	0.025801	21.513453	-14.742539	0.000000	6.370312	2.658488	1.975096	5.828107	0.101720	24.428313	-2.344434	0.000000	0.359830	-0.151121	0.220184	0.668241	-0.200991	0.233945	0.591165	-0.367437	0.233945	0.411250	-0.367437	0.192661	0.334138	-0.308167	0.178899	0.205607	-0.234087	0.165138	2.570231	-1.709516	1.224596	0.000000	0.000000	27.656322	2.233130	2.349808	14.011791	-5.489069	52.129085	39.433498	66.950325	8.559957	13.254681	17.788382	-7.169308	61.717977	43.810622	45.812172	4.263176	12.322748
0.245283	-5.993217	-2.621433	89.602940	0.250412	0.742890	0.736463	3.956599	-1.956022	7.714005	1.569395	0.027391	21.597674	-14.589551	0.000000	6.017534	2.614009	2.789744	5.586538	0.097503	24.273064	-3.398642	0.000000	0.355929	-0.130413	0.211925	0.660997	-0.173449	0.225170	0.584757	-0.317086	0.225170	0.406792	-0.317086	0.185434	0.330516	-0.265938	0.172189	0.203378	-0.202009	0.158944	2.542369	-1.475255	1.178664	0.000000	0.000000	27.561367	2.277927	2.957907	14.015307	-5.589332	51.683799	39.694150	67.720857	8.635061	13.880700	17.979539	-6.746859	61.340961	43.594170	44.858517	3.929638	12.858170
0.264151	-5.900706	-2.461565	89.550795	0.250219	0.743315	0.735499	3.763104	-1.870939	7.620190	1.647377	0.028752	21.684188	-14.450099	0.000000	5.622326	2.577465	3.726988	5.288038	0.092294	23.999858	-4.703056	0.000000	0.350081	-0.109718	0.213975	0.650135	-0.145926	0.227348	0.575147	-0.266769	0.227348	0.400107	-0.266769	0.187228	0.325085	-0.223738	0.173855	0.200036	-0.169954	0.160481	2.500591	-1.241157	1.190064	0.000000	0.000000	27.464215	2.294454	3.572438	14.003302	-5.688189	51.351662	39.938639	68.093405	8.678607	14.647784	18.094733	-6.340091	60.937701	43.399784	43.986167	3.573107	13.443675
